<?xml version="1.0" encoding="UTF-8"?>
<svg xmlns="http://www.w3.org/2000/svg" xmlns:xlink="http://www.w3.org/1999/xlink" width="1350.14pt" height="299.05pt" viewBox="0 0 1350.14 299.05" version="1.1">
<g id="surface1">
<path style=" stroke:none;fill-rule:nonzero;fill:rgb(0%,68.998718%,52.198792%);fill-opacity:1;" d="M 1350.140625 299.050781 L 0 299.050781 L 0 -0.00390625 L 1350.140625 -0.00390625 L 1350.140625 299.050781 "/>
<path style=" stroke:none;fill-rule:nonzero;fill:rgb(100%,100%,100%);fill-opacity:1;" d="M 46.144531 94.433594 L 92.734375 94.433594 C 98.191406 94.433594 102.628906 98.867188 102.628906 104.320313 L 102.628906 241.378906 L 146.984375 241.378906 L 146.984375 104.320313 C 146.984375 98.867188 151.4375 94.433594 156.90625 94.433594 L 203.53125 94.433594 L 203.53125 58.160156 L 46.144531 58.160156 L 46.144531 94.433594 "/>
<path style=" stroke:none;fill-rule:nonzero;fill:rgb(13.699341%,12.199402%,12.5%);fill-opacity:1;" d="M 203.53125 94.433594 L 156.90625 94.433594 C 151.4375 94.433594 146.984375 98.867188 146.984375 104.320313 L 146.984375 241.378906 L 102.628906 241.378906 L 102.628906 104.320313 C 102.628906 98.867188 98.191406 94.433594 92.734375 94.433594 L 46.144531 94.433594 L 46.144531 58.160156 L 203.53125 58.160156 Z M 204.289063 47.464844 L 45.351563 47.464844 C 39.894531 47.464844 35.449219 51.921875 35.449219 57.394531 L 35.449219 95.242188 C 35.449219 100.695313 39.894531 105.128906 45.351563 105.128906 L 91.929688 105.128906 L 91.929688 242.132813 C 91.929688 247.613281 96.386719 252.074219 101.867188 252.074219 L 147.769531 252.074219 C 153.234375 252.074219 157.683594 247.613281 157.683594 242.132813 L 157.683594 105.128906 L 204.289063 105.128906 C 209.769531 105.128906 214.226563 100.695313 214.226563 95.242188 L 214.226563 57.394531 C 214.226563 51.921875 209.769531 47.464844 204.289063 47.464844 "/>
<path style=" stroke:none;fill-rule:nonzero;fill:rgb(100%,100%,100%);fill-opacity:1;" d="M 603.269531 116.070313 L 645.464844 57.828125 L 602.816406 57.828125 C 602.097656 57.828125 600.429688 58.648438 599.886719 59.382813 L 548.597656 130.132813 C 546.523438 133.03125 544.1875 133.644531 542.601563 133.644531 C 540.230469 133.644531 538.101563 132.265625 537.046875 130.046875 C 536.515625 128.929688 536.257813 127.648438 536.257813 126.136719 L 536.257813 57.949219 L 499.953125 57.949219 L 499.953125 241.515625 L 536.257813 241.515625 L 536.257813 214.785156 C 536.257813 211.125 537.804688 206.332031 539.9375 203.390625 L 565.796875 167.71875 C 567.484375 165.421875 569.871094 164.121094 572.359375 164.121094 C 575.4375 164.121094 578.183594 166.089844 579.527344 169.253906 L 610.207031 240.554688 C 610.390625 240.929688 611.214844 241.488281 611.632813 241.515625 L 649.851563 241.582031 L 601.753906 129.195313 C 600.003906 125.21875 600.628906 119.675781 603.269531 116.070313 "/>
<path style=" stroke:none;fill-rule:nonzero;fill:rgb(13.699341%,12.199402%,12.5%);fill-opacity:1;" d="M 611.632813 241.515625 C 611.214844 241.488281 610.390625 240.929688 610.207031 240.554688 L 579.527344 169.253906 C 578.183594 166.089844 575.4375 164.121094 572.359375 164.121094 C 569.871094 164.121094 567.484375 165.421875 565.796875 167.71875 L 539.9375 203.390625 C 537.804688 206.332031 536.257813 211.125 536.257813 214.785156 L 536.257813 241.515625 L 499.953125 241.515625 L 499.953125 57.949219 L 536.257813 57.949219 L 536.257813 126.136719 C 536.257813 127.648438 536.515625 128.929688 537.046875 130.046875 C 538.101563 132.265625 540.230469 133.644531 542.601563 133.644531 C 544.1875 133.644531 546.523438 133.03125 548.597656 130.132813 L 599.886719 59.382813 C 600.429688 58.648438 602.097656 57.828125 602.816406 57.828125 L 645.464844 57.828125 L 603.269531 116.070313 C 600.628906 119.675781 600.003906 125.21875 601.753906 129.195313 L 649.851563 241.582031 Z M 611.566406 124.9375 C 611.335938 124.375 611.527344 122.894531 611.914063 122.367188 L 657.550781 59.382813 C 659.480469 56.773438 659.871094 53.707031 658.597656 51.171875 C 657.320313 48.644531 654.628906 47.132813 651.394531 47.132813 L 602.816406 47.132813 C 598.660156 47.132813 593.8125 49.605469 591.257813 53.058594 L 546.953125 114.175781 L 546.953125 57.21875 C 546.953125 51.722656 542.488281 47.253906 537.007813 47.253906 L 499.199219 47.253906 C 493.71875 47.253906 489.257813 51.722656 489.257813 57.21875 L 489.257813 242.339844 C 489.257813 247.78125 493.71875 252.214844 499.199219 252.214844 L 537.007813 252.214844 C 542.488281 252.214844 546.953125 247.78125 546.953125 242.339844 L 546.953125 214.785156 C 546.953125 213.375 547.78125 210.792969 548.597656 209.667969 L 571.613281 177.921875 L 600.378906 244.773438 C 602.226563 249.085938 606.953125 252.214844 611.609375 252.214844 L 653.386719 252.285156 L 653.394531 252.285156 C 656.390625 252.285156 658.980469 250.976563 660.507813 248.6875 C 662.042969 246.390625 662.253906 243.457031 661.0625 240.59375 L 611.566406 124.9375 "/>
<path style=" stroke:none;fill-rule:nonzero;fill:rgb(100%,100%,100%);fill-opacity:1;" d="M 929.164063 94.433594 L 975.773438 94.433594 C 981.269531 94.433594 985.734375 98.867188 985.734375 104.320313 L 985.734375 241.378906 L 1030.050781 241.378906 L 1030.050781 104.320313 C 1030.050781 98.867188 1034.488281 94.433594 1039.941406 94.433594 L 1086.570313 94.433594 L 1086.570313 58.160156 L 929.164063 58.160156 L 929.164063 94.433594 "/>
<path style=" stroke:none;fill-rule:nonzero;fill:rgb(13.699341%,12.199402%,12.5%);fill-opacity:1;" d="M 1086.570313 94.433594 L 1039.941406 94.433594 C 1034.488281 94.433594 1030.050781 98.867188 1030.050781 104.320313 L 1030.050781 241.378906 L 985.734375 241.378906 L 985.734375 104.320313 C 985.734375 98.867188 981.269531 94.433594 975.773438 94.433594 L 929.164063 94.433594 L 929.164063 58.160156 L 1086.570313 58.160156 Z M 1087.339844 47.464844 L 928.351563 47.464844 C 922.902344 47.464844 918.46875 51.921875 918.46875 57.394531 L 918.46875 95.242188 C 918.46875 100.695313 922.902344 105.128906 928.351563 105.128906 L 975.039063 105.128906 L 975.039063 242.132813 C 975.039063 247.613281 979.453125 252.074219 984.878906 252.074219 L 1030.828125 252.074219 C 1036.300781 252.074219 1040.75 247.613281 1040.75 242.132813 L 1040.75 105.128906 L 1087.339844 105.128906 C 1092.808594 105.128906 1097.261719 100.695313 1097.261719 95.242188 L 1097.261719 57.394531 C 1097.261719 51.921875 1092.808594 47.464844 1087.339844 47.464844 "/>
<path style=" stroke:none;fill-rule:nonzero;fill:rgb(100%,100%,100%);fill-opacity:1;" d="M 825.242188 175.765625 C 823.570313 177.769531 821.03125 178.917969 818.277344 178.917969 L 775.96875 178.917969 C 773.242188 178.917969 770.722656 177.777344 769.046875 175.796875 C 767.382813 173.820313 766.6875 171.164063 767.144531 168.503906 L 767.210938 168.171875 C 773.558594 141.417969 779.730469 116.113281 784.148438 98.746094 C 785.351563 93.988281 788.882813 91.257813 793.828125 91.257813 L 799.976563 91.257813 C 804.9375 91.257813 808.476563 93.960938 809.703125 98.675781 C 810.773438 102.484375 811.933594 106.585938 813.136719 110.898438 L 813.167969 111.027344 C 817.238281 127.117188 822.058594 147.199219 827.054688 168.082031 L 827.113281 168.378906 C 827.597656 171.070313 826.917969 173.765625 825.242188 175.765625 Z M 880.722656 234.730469 C 873.605469 190.039063 853.558594 106.136719 841.726563 71.5 L 841.609375 71.125 C 840.65625 67.46875 840.019531 65.507813 839.730469 64.664063 C 837.988281 59.574219 833.089844 58.519531 830.910156 58.304688 C 830.714844 58.292969 830.503906 58.28125 830.269531 58.261719 C 830.148438 58.253906 830.011719 58.238281 829.871094 58.234375 L 829.554688 58.21875 C 823.761719 57.734375 811.890625 57.457031 796.976563 57.457031 L 796.839844 57.457031 C 783.148438 57.457031 771.890625 57.695313 765.796875 58.101563 L 765.636719 58.308594 L 763.199219 58.335938 C 760.679688 58.589844 756.40625 59.726563 754.648438 64.382813 C 754.550781 64.664063 754.445313 64.894531 754.367188 65.058594 C 742.570313 95.714844 718.4375 196.484375 712.078125 241.421875 L 749.050781 241.421875 L 749.1875 241.3125 L 750.335938 241.3125 C 750.402344 241.269531 750.464844 241.226563 750.515625 241.1875 L 750.605469 240.925781 C 751.644531 235.890625 753.03125 229.71875 754.632813 222.589844 L 755.847656 217.160156 L 756.75 216.949219 C 758.789063 213.902344 762.363281 211.820313 766.0625 211.820313 L 828.140625 211.820313 C 831.585938 211.820313 834.871094 213.558594 836.96875 216.222656 L 838.210938 216.222656 L 839.148438 220.394531 C 839.679688 222.734375 840.167969 224.960938 840.636719 227.089844 C 841.019531 228.835938 841.390625 230.511719 841.75 232.121094 L 841.796875 232.355469 C 842.269531 235.015625 842.738281 237.828125 843.265625 241.179688 C 843.390625 241.289063 843.605469 241.40625 843.726563 241.429688 L 844.089844 241.421875 L 882.074219 241.421875 C 881.933594 240.734375 881.78125 239.988281 881.621094 239.191406 L 880.722656 234.730469 "/>
<path style=" stroke:none;fill-rule:nonzero;fill:rgb(13.699341%,12.199402%,12.5%);fill-opacity:1;" d="M 844.089844 241.421875 L 843.726563 241.429688 C 843.605469 241.40625 843.390625 241.289063 843.265625 241.179688 C 842.738281 237.828125 842.269531 235.015625 841.796875 232.355469 L 841.75 232.121094 C 841.390625 230.511719 841.019531 228.835938 840.636719 227.089844 C 840.167969 224.960938 839.679688 222.734375 839.148438 220.394531 L 838.210938 216.222656 L 836.96875 216.222656 C 834.871094 213.558594 831.585938 211.820313 828.140625 211.820313 L 766.0625 211.820313 C 762.363281 211.820313 758.789063 213.902344 756.75 216.949219 L 755.847656 217.160156 L 754.632813 222.589844 C 753.03125 229.71875 751.644531 235.890625 750.605469 240.925781 L 750.515625 241.1875 C 750.464844 241.226563 750.402344 241.269531 750.335938 241.3125 L 749.1875 241.3125 L 749.050781 241.421875 L 712.078125 241.421875 C 718.4375 196.484375 742.570313 95.714844 754.367188 65.058594 C 754.445313 64.894531 754.550781 64.664063 754.648438 64.382813 C 756.40625 59.726563 760.679688 58.589844 763.199219 58.335938 L 765.636719 58.308594 L 765.796875 58.101563 C 771.890625 57.695313 783.148438 57.457031 796.839844 57.457031 L 796.976563 57.457031 C 811.890625 57.457031 823.761719 57.734375 829.554688 58.21875 L 829.871094 58.234375 C 830.011719 58.238281 830.148438 58.253906 830.269531 58.261719 C 830.503906 58.28125 830.714844 58.292969 830.910156 58.304688 C 833.089844 58.519531 837.988281 59.574219 839.730469 64.664063 C 840.019531 65.507813 840.65625 67.46875 841.609375 71.125 L 841.726563 71.5 C 853.558594 106.136719 873.605469 190.039063 880.722656 234.730469 L 881.621094 239.191406 C 881.78125 239.988281 881.933594 240.734375 882.074219 241.421875 Z M 892.957031 241.308594 C 892.726563 240.128906 892.4375 238.703125 892.101563 237.058594 L 891.265625 232.9375 C 884.078125 187.859375 863.886719 103.371094 851.910156 68.226563 C 851.140625 65.296875 850.421875 62.855469 849.839844 61.183594 C 847.246094 53.578125 840.292969 48.386719 831.703125 47.632813 L 831.113281 47.597656 C 830.863281 47.578125 830.589844 47.558594 830.304688 47.546875 C 824.1875 47.046875 812.058594 46.761719 796.976563 46.761719 L 796.839844 46.761719 C 780.644531 46.761719 768.121094 47.082031 762.476563 47.640625 L 760.175781 47.867188 L 760.082031 47.988281 C 752.847656 49.34375 747.183594 53.914063 744.65625 60.5625 C 744.613281 60.652344 744.570313 60.746094 744.53125 60.84375 L 744.476563 60.980469 C 732.117188 92.898438 707.523438 195.664063 701.273438 241.449219 C 701.230469 241.714844 701.207031 241.949219 701.195313 242.136719 C 700.75 246.101563 702.609375 249.628906 705.957031 251.195313 C 707.179688 251.808594 708.558594 252.121094 710.109375 252.121094 L 750.175781 252.121094 C 750.644531 252.121094 751.117188 252.082031 751.617188 252.003906 L 751.890625 252.003906 L 752.507813 251.855469 C 756.472656 250.90625 759.722656 247.917969 760.753906 244.335938 C 760.855469 244.066406 760.972656 243.695313 761.046875 243.242188 C 762.015625 238.558594 763.304688 232.785156 764.792969 226.148438 L 764.898438 226.128906 L 765.644531 222.871094 C 765.714844 222.738281 765.980469 222.539063 766.0625 222.515625 L 828.109375 222.515625 C 828.261719 222.539063 828.539063 222.753906 828.589844 222.851563 L 829.59375 226.917969 L 829.644531 226.917969 C 829.832031 227.757813 830.011719 228.578125 830.1875 229.386719 C 830.566406 231.101563 830.933594 232.757813 831.285156 234.34375 C 831.753906 236.980469 832.21875 239.789063 832.761719 243.226563 C 833.585938 248.132813 838.480469 252.121094 843.667969 252.121094 L 884.199219 252.121094 C 886.960938 252.121094 889.394531 251.042969 891.058594 249.09375 C 892.773438 247.082031 893.457031 244.378906 892.988281 241.484375 L 892.957031 241.308594 "/>
<path style=" stroke:none;fill-rule:nonzero;fill:rgb(13.699341%,12.199402%,12.5%);fill-opacity:1;" d="M 778.195313 168.222656 C 784.253906 142.71875 790.109375 118.726563 794.371094 101.953125 L 799.511719 101.953125 C 800.546875 105.628906 801.660156 109.574219 802.816406 113.714844 C 806.714844 129.128906 811.308594 148.246094 816.085938 168.222656 Z M 827.054688 168.082031 C 822.058594 147.199219 817.238281 127.117188 813.167969 111.027344 L 813.136719 110.898438 C 811.933594 106.585938 810.773438 102.484375 809.703125 98.675781 C 808.476563 93.960938 804.9375 91.257813 799.976563 91.257813 L 793.828125 91.257813 C 788.882813 91.257813 785.351563 93.988281 784.148438 98.746094 C 779.730469 116.113281 773.558594 141.417969 767.210938 168.171875 L 767.144531 168.503906 C 766.6875 171.164063 767.382813 173.820313 769.046875 175.796875 C 770.722656 177.777344 773.242188 178.917969 775.96875 178.917969 L 818.277344 178.917969 C 821.03125 178.917969 823.570313 177.769531 825.242188 175.765625 C 826.917969 173.765625 827.597656 171.070313 827.113281 168.378906 L 827.054688 168.082031 "/>
<path style=" stroke:none;fill-rule:nonzero;fill:rgb(100%,100%,100%);fill-opacity:1;" d="M 1246.820313 175.734375 C 1245.148438 177.757813 1242.601563 178.917969 1239.828125 178.917969 L 1197.519531 178.917969 C 1194.808594 178.917969 1192.300781 177.785156 1190.628906 175.816406 C 1188.960938 173.847656 1188.25 171.191406 1188.699219 168.527344 L 1188.769531 168.164063 C 1192.878906 150.90625 1198.820313 126.160156 1203.808594 106.28125 L 1203.859375 106.101563 C 1204.191406 104.976563 1204.5 103.875 1204.800781 102.789063 C 1205.210938 101.351563 1205.609375 99.945313 1206.011719 98.558594 C 1207.25 93.960938 1210.789063 91.257813 1215.679688 91.257813 L 1221.839844 91.257813 C 1226.710938 91.257813 1230.25 93.945313 1231.550781 98.632813 L 1231.609375 98.882813 C 1231.851563 99.941406 1232.160156 101.023438 1232.519531 102.101563 L 1232.640625 102.503906 C 1237.171875 120.480469 1243.140625 145.003906 1248.589844 168.097656 L 1248.640625 168.328125 C 1249.148438 171.023438 1248.488281 173.726563 1246.820313 175.734375 Z M 1262.078125 67.183594 L 1262 66.941406 C 1261.859375 66.492188 1261.738281 66.070313 1261.628906 65.683594 C 1261.53125 65.335938 1261.449219 65.023438 1261.339844 64.753906 C 1259.570313 59.617188 1254.730469 58.535156 1252.519531 58.308594 C 1252.230469 58.304688 1251.921875 58.289063 1251.589844 58.246094 C 1246.191406 57.746094 1234.261719 57.457031 1218.820313 57.457031 L 1218.679688 57.457031 C 1203.78125 57.457031 1191.589844 57.738281 1186.03125 58.210938 C 1185.601563 58.261719 1185.21875 58.292969 1184.878906 58.304688 C 1182.261719 58.554688 1177.789063 59.726563 1176.109375 64.640625 C 1175.828125 65.414063 1175.511719 66.507813 1175.128906 67.773438 L 1174.71875 69.125 C 1162.738281 103.054688 1141.289063 192.851563 1134.449219 237.691406 L 1134.421875 237.902344 C 1134.160156 239.1875 1133.941406 240.371094 1133.75 241.421875 L 1171.980469 241.421875 C 1172.070313 241.414063 1172.25 241.320313 1172.371094 241.226563 C 1172.640625 239.5 1172.929688 237.746094 1173.261719 235.898438 L 1173.300781 235.703125 C 1173.828125 233.21875 1174.421875 230.53125 1175.058594 227.664063 C 1175.558594 225.371094 1176.101563 222.96875 1176.640625 220.464844 L 1177.390625 217.042969 L 1178.378906 216.84375 C 1180.441406 213.832031 1183.96875 211.820313 1187.691406 211.820313 L 1249.738281 211.820313 C 1253.21875 211.820313 1256.5 213.554688 1258.578125 216.222656 L 1259.761719 216.222656 L 1260.710938 220.382813 C 1262.03125 226.210938 1263.550781 232.914063 1264.691406 238.445313 L 1264.730469 238.675781 L 1265.128906 241.214844 C 1265.25 241.308594 1265.429688 241.410156 1265.539063 241.425781 L 1265.660156 241.421875 L 1303.628906 241.421875 C 1303.570313 241.082031 1303.511719 240.710938 1303.441406 240.308594 C 1296.828125 195.089844 1274.039063 99.683594 1262.078125 67.183594 "/>
<path style=" stroke:none;fill-rule:nonzero;fill:rgb(13.699341%,12.199402%,12.5%);fill-opacity:1;" d="M 1265.660156 241.421875 L 1265.539063 241.425781 C 1265.429688 241.410156 1265.25 241.308594 1265.128906 241.214844 L 1264.730469 238.675781 L 1264.691406 238.445313 C 1263.550781 232.914063 1262.03125 226.210938 1260.710938 220.382813 L 1259.761719 216.222656 L 1258.578125 216.222656 C 1256.5 213.554688 1253.21875 211.820313 1249.738281 211.820313 L 1187.691406 211.820313 C 1183.96875 211.820313 1180.441406 213.832031 1178.378906 216.84375 L 1177.390625 217.042969 L 1176.640625 220.464844 C 1176.101563 222.96875 1175.558594 225.371094 1175.058594 227.664063 C 1174.421875 230.53125 1173.828125 233.21875 1173.300781 235.703125 L 1173.261719 235.898438 C 1172.929688 237.746094 1172.640625 239.5 1172.371094 241.226563 C 1172.25 241.320313 1172.070313 241.414063 1171.980469 241.421875 L 1133.75 241.421875 C 1133.941406 240.371094 1134.160156 239.1875 1134.421875 237.902344 L 1134.449219 237.691406 C 1141.289063 192.851563 1162.738281 103.054688 1174.71875 69.125 L 1175.128906 67.773438 C 1175.511719 66.507813 1175.828125 65.414063 1176.109375 64.640625 C 1177.789063 59.726563 1182.261719 58.554688 1184.878906 58.304688 C 1185.21875 58.292969 1185.601563 58.261719 1186.03125 58.210938 C 1191.589844 57.738281 1203.78125 57.457031 1218.679688 57.457031 L 1218.820313 57.457031 C 1234.261719 57.457031 1246.191406 57.746094 1251.589844 58.246094 C 1251.921875 58.289063 1252.230469 58.304688 1252.519531 58.308594 C 1254.730469 58.535156 1259.570313 59.617188 1261.339844 64.753906 C 1261.449219 65.023438 1261.53125 65.335938 1261.628906 65.683594 C 1261.738281 66.070313 1261.859375 66.492188 1262 66.941406 L 1262.078125 67.183594 C 1274.039063 99.683594 1296.828125 195.089844 1303.441406 240.308594 C 1303.511719 240.710938 1303.570313 241.082031 1303.628906 241.421875 Z M 1314.53125 241.433594 L 1314.480469 241.203125 C 1314.308594 240.40625 1314.148438 239.539063 1314.011719 238.65625 C 1307.351563 193.105469 1284.300781 96.710938 1272.171875 63.617188 C 1272.070313 63.308594 1271.988281 63.015625 1271.910156 62.742188 C 1271.730469 62.117188 1271.570313 61.5625 1271.421875 61.164063 C 1268.800781 53.570313 1261.839844 48.386719 1253.261719 47.632813 L 1252.699219 47.609375 C 1246.949219 47.0625 1234.921875 46.761719 1218.800781 46.761719 L 1218.679688 46.761719 C 1203.179688 46.761719 1190.910156 47.054688 1185.019531 47.5625 L 1184.808594 47.582031 C 1184.699219 47.597656 1184.601563 47.609375 1184.578125 47.613281 L 1184.128906 47.632813 C 1175.421875 48.371094 1168.640625 53.433594 1166.019531 61.105469 C 1165.671875 62.078125 1165.320313 63.242188 1164.878906 64.714844 L 1164.589844 65.6875 C 1152.460938 100.128906 1130.808594 190.683594 1123.890625 235.972656 C 1123.480469 238.101563 1123.148438 239.953125 1122.890625 241.375 C 1122.359375 244.277344 1123.011719 247 1124.710938 249.039063 C 1126.359375 251.027344 1128.808594 252.121094 1131.601563 252.121094 L 1171.980469 252.121094 C 1177.328125 252.121094 1182.121094 248.179688 1182.898438 243.148438 C 1183.160156 241.433594 1183.449219 239.691406 1183.769531 237.851563 C 1184.300781 235.414063 1184.878906 232.78125 1185.5 229.976563 C 1185.769531 228.765625 1186.039063 227.519531 1186.328125 226.242188 L 1187.191406 222.929688 C 1187.269531 222.773438 1187.578125 222.542969 1187.691406 222.515625 L 1249.691406 222.515625 C 1249.839844 222.539063 1250.101563 222.726563 1250.128906 222.746094 L 1251.070313 226.917969 L 1251.21875 226.917969 C 1252.261719 231.523438 1253.328125 236.347656 1254.179688 240.484375 L 1254.609375 243.195313 C 1255.429688 248.203125 1260.210938 252.121094 1265.511719 252.121094 L 1305.769531 252.121094 C 1308.539063 252.121094 1310.988281 251.035156 1312.648438 249.0625 C 1314.359375 247.035156 1315.019531 244.324219 1314.53125 241.433594 "/>
<path style=" stroke:none;fill-rule:nonzero;fill:rgb(13.699341%,12.199402%,12.5%);fill-opacity:1;" d="M 1199.75 168.222656 C 1203.808594 151.179688 1209.421875 127.875 1214.160156 108.976563 C 1214.480469 107.863281 1214.789063 106.773438 1215.101563 105.695313 C 1215.449219 104.453125 1215.789063 103.234375 1216.160156 101.953125 L 1221.351563 101.953125 C 1221.621094 103.066406 1221.949219 104.195313 1222.320313 105.3125 C 1226.679688 122.621094 1232.359375 145.953125 1237.628906 168.222656 Z M 1248.589844 168.097656 C 1243.140625 145.003906 1237.171875 120.480469 1232.640625 102.503906 L 1232.519531 102.101563 C 1232.160156 101.023438 1231.851563 99.941406 1231.609375 98.882813 L 1231.550781 98.632813 C 1230.25 93.945313 1226.710938 91.257813 1221.839844 91.257813 L 1215.679688 91.257813 C 1210.789063 91.257813 1207.25 93.960938 1206.011719 98.558594 C 1205.609375 99.945313 1205.210938 101.351563 1204.800781 102.789063 C 1204.5 103.875 1204.191406 104.976563 1203.859375 106.101563 L 1203.808594 106.28125 C 1198.820313 126.160156 1192.878906 150.90625 1188.769531 168.164063 L 1188.699219 168.527344 C 1188.25 171.191406 1188.960938 173.847656 1190.628906 175.816406 C 1192.300781 177.785156 1194.808594 178.917969 1197.519531 178.917969 L 1239.828125 178.917969 C 1242.601563 178.917969 1245.148438 177.757813 1246.820313 175.734375 C 1248.488281 173.726563 1249.148438 171.023438 1248.640625 168.328125 L 1248.589844 168.097656 "/>
<path style=" stroke:none;fill-rule:nonzero;fill:rgb(100%,100%,100%);fill-opacity:1;" d="M 364.429688 175.613281 C 362.746094 177.714844 360.164063 178.917969 357.34375 178.917969 L 312.761719 178.917969 C 310.023438 178.917969 307.496094 177.769531 305.824219 175.765625 C 304.15625 173.769531 303.480469 171.089844 303.964844 168.417969 L 304.027344 168.117188 C 310.3125 142.105469 316.976563 116.777344 322.316406 98.609375 C 323.597656 93.9375 327.121094 91.257813 331.992188 91.257813 L 335.101563 91.242188 L 338.199219 91.257813 C 343.042969 91.257813 346.550781 93.941406 347.816406 98.621094 C 353.21875 116.96875 360.042969 142.859375 366.082031 167.894531 C 366.71875 170.730469 366.109375 173.515625 364.429688 175.613281 Z M 368.445313 58.285156 C 363.210938 57.765625 350.75 57.457031 335.113281 57.457031 C 319.390625 57.457031 306.925781 57.765625 301.679688 58.285156 C 298.585938 58.589844 294.496094 59.980469 292.597656 64.851563 C 280.871094 95.109375 256.660156 196.257813 250.261719 241.421875 L 288.3125 241.421875 C 288.386719 241.410156 288.5625 241.3125 288.679688 241.21875 C 289.65625 235.046875 290.929688 228.019531 292.46875 220.289063 L 292.558594 219.902344 C 293.835938 215.292969 298.441406 211.820313 303.265625 211.820313 L 366.730469 211.820313 C 371.769531 211.820313 376.582031 215.578125 377.683594 220.371094 L 377.71875 220.542969 C 379.074219 227.480469 380.460938 234.769531 381.398438 241.167969 C 381.53125 241.285156 381.761719 241.410156 381.890625 241.425781 L 419.902344 241.421875 C 413.53125 196.3125 389.3125 95.167969 377.554688 64.84375 C 375.644531 59.984375 371.546875 58.59375 368.445313 58.285156 "/>
<path style=" stroke:none;fill-rule:nonzero;fill:rgb(13.699341%,12.199402%,12.5%);fill-opacity:1;" d="M 381.890625 241.425781 C 381.761719 241.410156 381.53125 241.285156 381.398438 241.167969 C 380.460938 234.769531 379.074219 227.480469 377.71875 220.542969 L 377.683594 220.371094 C 376.582031 215.578125 371.769531 211.820313 366.730469 211.820313 L 303.265625 211.820313 C 298.441406 211.820313 293.835938 215.292969 292.558594 219.902344 L 292.46875 220.289063 C 290.929688 228.019531 289.65625 235.046875 288.679688 241.21875 C 288.5625 241.3125 288.386719 241.410156 288.3125 241.421875 L 250.261719 241.421875 C 256.660156 196.257813 280.871094 95.109375 292.597656 64.851563 C 294.496094 59.980469 298.585938 58.589844 301.679688 58.285156 C 306.925781 57.765625 319.390625 57.457031 335.113281 57.457031 C 350.75 57.457031 363.210938 57.765625 368.445313 58.285156 C 371.546875 58.59375 375.644531 59.984375 377.554688 64.84375 C 389.3125 95.167969 413.53125 196.3125 419.902344 241.421875 Z M 387.519531 60.960938 C 384.527344 53.335938 377.964844 48.480469 369.5 47.640625 C 363.851563 47.082031 351.316406 46.761719 335.015625 46.761719 C 318.820313 46.761719 306.289063 47.082031 300.628906 47.640625 C 292.164063 48.476563 285.605469 53.335938 282.625 60.976563 C 270.296875 92.800781 245.671875 195.78125 239.441406 241.578125 C 239.023438 244.496094 239.734375 247.195313 241.449219 249.175781 C 243.097656 251.074219 245.5 252.121094 248.21875 252.121094 L 288.3125 252.121094 C 293.570313 252.121094 298.457031 248.089844 299.199219 243.171875 C 300.140625 237.210938 301.375 230.359375 302.875 222.796875 C 302.980469 222.679688 303.1875 222.535156 303.265625 222.515625 L 366.679688 222.515625 C 366.847656 222.539063 367.144531 222.730469 367.277344 222.890625 C 368.617188 229.75 369.976563 236.929688 370.871094 243.105469 L 370.898438 243.277344 C 371.785156 248.234375 376.601563 252.121094 381.859375 252.121094 L 421.925781 252.121094 C 424.648438 252.121094 427.058594 251.070313 428.707031 249.167969 C 430.425781 247.1875 431.140625 244.492188 430.726563 241.617188 C 424.519531 195.84375 399.890625 92.859375 387.519531 60.960938 "/>
<path style=" stroke:none;fill-rule:nonzero;fill:rgb(13.699341%,12.199402%,12.5%);fill-opacity:1;" d="M 315.007813 168.222656 C 321.042969 143.378906 327.371094 119.371094 332.484375 101.953125 L 335.074219 101.9375 L 337.644531 101.953125 C 342.832031 119.605469 349.335938 144.226563 355.15625 168.222656 Z M 347.816406 98.621094 C 346.550781 93.941406 343.042969 91.257813 338.199219 91.257813 L 335.101563 91.242188 L 331.992188 91.257813 C 327.121094 91.257813 323.597656 93.9375 322.316406 98.609375 C 316.976563 116.777344 310.3125 142.105469 304.027344 168.117188 L 303.964844 168.417969 C 303.480469 171.089844 304.15625 173.769531 305.824219 175.765625 C 307.496094 177.769531 310.023438 178.917969 312.761719 178.917969 L 357.34375 178.917969 C 360.164063 178.917969 362.746094 177.714844 364.429688 175.613281 C 366.109375 173.515625 366.71875 170.730469 366.082031 167.894531 C 360.042969 142.859375 353.21875 116.96875 347.816406 98.621094 "/>
</g>
</svg>
